<?xml version="1.0" standalone="no"?>
<!DOCTYPE svg PUBLIC "-//W3C//DTD SVG 20010904//EN"
 "http://www.w3.org/TR/2001/REC-SVG-20010904/DTD/svg10.dtd">
<svg version="1.0" xmlns="http://www.w3.org/2000/svg"
 width="1254.000000pt" height="1254.000000pt" viewBox="0 0 1254.000000 1254.000000"
 preserveAspectRatio="xMidYMid meet">

<g transform="translate(0.000000,1254.000000) scale(0.100000,-0.100000)"
fill="#000000" stroke="none">
<path d="M3407 10165 c126 -117 200 -251 240 -436 17 -80 18 -227 21 -2964 2
-1918 -1 -2919 -7 -2995 -6 -64 -20 -151 -31 -195 -41 -161 -136 -314 -249
-400 -28 -21 -51 -43 -51 -47 0 -4 304 -8 675 -8 l675 0 1 1073 c1 589 3 1223
5 1407 l2 335 249 3 c136 2 263 0 281 -3 l32 -6 -4 -1527 c-3 -1089 -8 -1554
-16 -1622 -40 -319 -173 -593 -354 -727 -36 -26 -64 -52 -62 -58 4 -14 314
-18 471 -6 72 6 164 19 205 30 341 87 581 295 697 603 46 122 63 212 70 366
l6 132 102 0 c56 0 171 7 256 15 1176 112 2091 721 2595 1726 193 386 310 782
380 1289 24 178 30 682 10 890 -46 485 -164 914 -358 1304 -186 376 -381 643
-679 930 -482 465 -1111 772 -1844 901 -351 62 -263 59 -1900 62 l-1499 4 81
-76z m2823 -435 c622 -63 1144 -303 1555 -715 416 -416 692 -1000 806 -1703
29 -185 40 -322 46 -582 8 -396 -11 -620 -83 -978 -136 -675 -398 -1197 -786
-1567 -372 -356 -823 -544 -1371 -571 l-137 -7 2 1164 3 1164 471 3 471 2 69
182 c38 100 70 185 72 190 2 4 -241 9 -540 10 l-543 3 -3 95 c-8 221 26 610
73 846 141 704 525 1119 1140 1229 22 4 100 10 173 14 76 3 133 10 134 16 2
16 -71 52 -141 70 -177 45 -485 58 -711 30 -657 -79 -1172 -427 -1448 -980
-157 -316 -224 -638 -236 -1135 l-4 -185 -276 -3 -276 -2 0 1710 0 1710 723 0
c397 0 765 -5 817 -10z"/>
</g>
</svg>
